<svg width="32" height="32" viewBox="0 0 32 32" fill="none" xmlns="http://www.w3.org/2000/svg">
<rect width="32" height="32" rx="4" fill="#FAAFD4"/>
<path d="M23 24.6892V24.9062H19.1941V24.6892H20.0254C19.8883 24.2538 19.7136 23.8312 19.5034 23.426C18.8653 22.1986 17.6379 20.6565 15.5022 20.6565C13.2926 20.6565 12.0544 22.3071 11.4347 23.5519C11.2523 23.9186 11.0985 24.2988 10.9746 24.6892H11.8059V24.9062H8V24.6892H8.99515L10.496 20.6565H9.15577L9.23824 20.4329H18.3845L16.7133 15.9542L15.4881 12.6757L15.0399 11.482L14.4831 9.97461L15.5966 7H15.6139L16.6134 9.67617L17.2852 11.4766L18.9554 15.9531L20.6266 20.4318L20.7091 20.6554L22.21 24.6892H23Z" fill="#454545"/>
</svg>
