<svg width="30" height="19" viewBox="0 0 30 19" fill="none" xmlns="http://www.w3.org/2000/svg">
<path d="M18.7487 2.13477L10.8516 2.16239L11.0908 16.8727L18.988 16.8451L18.7487 2.13477Z" fill="#FF5F00"/>
<path d="M11.3721 9.54527C11.3232 6.5533 12.6405 3.89482 14.7038 2.1704C13.1463 0.926939 11.1939 0.179202 9.07737 0.186577C4.06321 0.20405 0.0749628 4.40694 0.159523 9.58436C0.244084 14.7617 4.36916 18.9363 9.3833 18.9188C11.4998 18.9115 13.4277 18.1502 14.9443 16.8961C12.8253 15.2122 11.4209 12.5373 11.3721 9.54527Z" fill="#EB001B"/>
<path d="M29.6812 9.41664C29.7658 14.594 25.7776 18.7969 20.7634 18.8144C18.6468 18.8218 16.6944 18.074 15.137 16.8306C17.2255 15.106 18.5176 12.4477 18.4687 9.45566C18.4198 6.46373 17.0159 3.81473 14.8965 2.10489C16.4131 0.850717 18.3409 0.0894612 20.4575 0.0820856C25.4716 0.0646124 29.5971 4.26524 29.6812 9.41664Z" fill="#F79E1B"/>
</svg>
