<svg width="36" height="17" viewBox="0 0 36 17" fill="none" xmlns="http://www.w3.org/2000/svg">
<path d="M32.1761 5H25.3301C25.7288 7.25221 27.9222 9.37195 30.315 9.37195H35.7652C35.8316 9.17322 35.8316 8.84201 35.8316 8.64329C35.8316 6.65604 34.17 5 32.1761 5Z" fill="url(#paint0_linear_1492_20563)"/>
<path d="M25.9297 9.76953V15.2675H29.253V12.3529H32.1775C33.7726 12.3529 35.1684 11.2268 35.6337 9.76953H25.9297Z" fill="#4FAD50"/>
<path d="M14.2305 5V15.2012H17.155C17.155 15.2012 17.8861 15.2012 18.2849 14.4725C20.2789 10.5643 20.8771 9.37195 20.8771 9.37195H21.2759V15.2012H24.5992V5H21.6747C21.6747 5 20.9435 5.06625 20.5447 5.72866C18.8831 9.10698 17.9526 10.8293 17.9526 10.8293H17.5538V5H14.2305Z" fill="#4FAD50"/>
<path d="M0.273438 15.2671V5.06592H3.59673C3.59673 5.06592 4.52727 5.06592 5.05899 6.52323C6.38831 10.3652 6.52125 10.8952 6.52125 10.8952C6.52125 10.8952 6.7871 9.96779 7.98348 6.52323C8.5152 5.06592 9.44573 5.06592 9.44573 5.06592H12.769V15.2671H9.44573V9.76908H9.04692L7.18591 15.2671H5.72365L3.86261 9.76908H3.46381V15.2671H0.273438Z" fill="#4FAD50"/>
<linearGradient id="paint0_linear_1492_20563" x1="25.3182" y1="7.21731" x2="35.8081" y2="7.21731" gradientUnits="userSpaceOnUse">
<stop stop-color="#27B1E6"/>
<stop offset="1" stop-color="#148ACA"/>
</linearGradient>
</svg>
