<svg width="31" height="17" viewBox="0 0 31 17" fill="none" xmlns="http://www.w3.org/2000/svg">
<path d="M29.2588 5.93848V9.92751H27.8518V7.13007H26.4968V9.92751H25.0898V5.93848H29.2588Z" fill="#1C1637"/>
<path d="M24.4215 8.15922C24.4215 9.32083 23.4538 10.0872 22.1509 10.0872C20.803 10.0872 19.8203 9.27584 19.8203 7.43687C19.8203 5.85908 20.828 4.55844 22.32 4.53343C22.9735 4.53343 24.3775 4.50244 24.3775 4.50244L23.745 5.66297C23.745 5.66297 22.6262 5.665 22.4781 5.665C21.8347 5.665 21.2493 6.14927 21.1672 6.81157C21.5094 6.49138 21.9638 6.30535 22.5152 6.30535C23.707 6.30535 24.4215 7.03471 24.4215 8.15922ZM22.9775 8.15922C22.9775 7.63798 22.6423 7.33287 22.1579 7.33287C21.6585 7.33287 21.3243 7.64499 21.3243 8.16623C21.3243 8.6575 21.6595 9.01467 22.1579 9.01467C22.6793 9.01566 22.9775 8.62845 22.9775 8.15922Z" fill="#1C1637"/>
<path d="M18.705 8.72146C18.705 8.72146 18.3648 8.9126 17.8575 8.94958C17.273 8.96558 16.7537 8.60638 16.7537 7.96607C16.7537 7.34175 17.213 6.98359 17.8424 6.98359C18.2287 6.98359 18.7401 7.24569 18.7401 7.24569C18.7401 7.24569 19.1143 6.57442 19.3074 6.2402C18.9532 5.97711 18.4799 5.83301 17.9305 5.83301C16.5435 5.83301 15.4688 6.7175 15.4688 7.95911C15.4688 9.21666 16.4785 10.0802 17.9305 10.0542C18.3368 10.0391 18.8962 9.90006 19.2374 9.68596L18.705 8.72146Z" fill="#1C1637"/>
<path d="M0.765625 3.4834L2.71099 6.94716V9.05918L0.769635 12.5159L0.765625 3.4834Z" fill="#5B57A2"/>
<path d="M8.23047 5.68638L10.0517 4.57385L13.7793 4.5708L8.23047 7.9595V5.68638Z" fill="#D90751"/>
<path d="M8.21957 3.46272L8.2296 8.04803L6.28125 6.85442V0L8.21957 3.46272Z" fill="#FAB718"/>
<path d="M13.7784 4.5703L10.0509 4.57328L8.21957 3.46272L6.28125 0L13.7784 4.5703Z" fill="#ED6F26"/>
<path d="M8.2296 12.5343V10.3092L6.28125 9.13965V16L8.2296 12.5343Z" fill="#63B22F"/>
<path d="M10.0471 11.4324L2.71099 6.94715L0.765625 3.4834L13.7717 11.4284L10.0471 11.4324Z" fill="#1487C9"/>
<path d="M6.28125 15.999L8.2296 12.5332L10.0458 11.4308L13.7705 11.4268L6.28125 15.999Z" fill="#017F36"/>
<path d="M0.769531 12.5161L6.29739 9.14041L4.43808 8.00391L2.71089 9.05943L0.769531 12.5161Z" fill="#984995"/>
</svg>
