<svg width="40" height="19" viewBox="0 0 40 19" fill="none" xmlns="http://www.w3.org/2000/svg">
<path d="M36.0287 5.15625H33.7094C33.0083 5.15625 32.4689 5.36576 32.1453 6.04669L27.7227 15.8415H30.8508C30.8508 15.8415 31.3902 14.532 31.4981 14.2177C31.8217 14.2177 34.896 14.2177 35.3275 14.2177C35.4354 14.5844 35.705 15.7891 35.705 15.7891H38.5097L36.0287 5.15625ZM32.361 12.0178C32.6308 11.3893 33.5477 9.03227 33.5477 9.03227C33.5477 9.08464 33.8173 8.40372 33.9252 8.03707L34.1409 8.97988C34.1409 8.97988 34.7342 11.5464 34.842 12.0702H32.361V12.0178Z" fill="#3362AB"/>
<path d="M27.937 12.333C27.937 14.5329 25.8875 15.9995 22.7053 15.9995C21.357 15.9995 20.0625 15.7376 19.3613 15.4234L19.7929 13.0139L20.1704 13.171C21.1412 13.5901 21.7884 13.7472 22.975 13.7472C23.838 13.7472 24.7549 13.4329 24.7549 12.6996C24.7549 12.2282 24.3773 11.914 23.1907 11.3902C22.0581 10.8664 20.548 10.0283 20.548 8.50936C20.548 6.41422 22.6514 5 25.6178 5C26.7504 5 27.7212 5.20951 28.3145 5.47141L27.8831 7.77606L27.6673 7.56655C27.128 7.35703 26.4268 7.14752 25.4021 7.14752C24.2694 7.1999 23.7301 7.6713 23.7301 8.09033C23.7301 8.56175 24.3773 8.92839 25.4021 9.3998C27.128 10.1855 27.937 11.0759 27.937 12.333Z" fill="#3362AB"/>
<path d="M1.61719 5.2603L1.67112 5.05078H6.30952C6.95674 5.05078 7.44216 5.2603 7.60396 5.94121L8.62872 10.6553C7.60396 8.14112 5.23083 6.09836 1.61719 5.2603Z" fill="#F9B50B"/>
<path d="M15.1552 5.15834L10.4629 15.7911H7.28073L4.58398 6.88683C6.52564 8.09153 8.14369 9.97716 8.73697 11.2866L9.06059 12.3866L11.9731 5.10596H15.1552V5.15834Z" fill="#3362AB"/>
<path d="M16.3955 5.10596H19.3619L17.4743 15.7911H14.5078L16.3955 5.10596Z" fill="#3362AB"/>
</svg>
