<svg width="25" height="15" viewBox="0 0 25 15" xmlns="http://www.w3.org/2000/svg">
<path d="M15.1383 6.92768C14.6811 6.75743 14.6811 6.10723 14.6528 5.65445C14.5385 4.04164 15.1099 1.57942 14.4242 0.532584C13.9387 -0.0904437 11.5954 -0.0333933 10.1673 0.0517297C9.7669 0.10878 9.28142 0.192998 8.93856 0.363244C8.59571 0.53349 8.25286 0.816026 8.25286 1.07049C8.25286 1.43815 9.11045 1.382 9.42404 1.86286C9.7669 2.37269 9.7669 3.47567 9.7669 4.38123C9.7669 5.42806 9.59501 6.81539 9.16713 6.87153C8.50977 6.8996 8.13857 6.2485 7.79572 5.76765C7.11001 4.83401 6.42431 3.67308 5.90957 2.54113C5.65266 1.94708 5.50912 1.29597 5.13793 1.04151C4.5665 0.644874 3.53795 0.616802 2.53773 0.644875C1.62346 0.672947 0.308729 0.559752 0.0518181 1.09766C-0.148408 1.69171 0.280387 2.25768 0.508955 2.73944C1.68014 5.25782 2.93727 7.46558 4.48056 9.55925C5.90957 11.5116 7.25173 13.0683 9.88027 13.8887C10.6236 14.1151 13.8802 14.7662 14.5376 13.8887C14.7661 13.5492 14.7095 12.7849 14.8237 12.2189C14.938 11.6529 15.0807 11.0869 15.6237 11.0589C16.0809 11.0308 16.3378 11.4265 16.624 11.71C16.9385 12.0215 17.1954 12.2759 17.4239 12.5594C17.967 13.0973 18.5384 13.8326 19.2241 14.116C20.1668 14.5127 21.6241 14.3995 22.9955 14.3424C24.11 14.3144 24.91 14.088 24.996 13.4369C25.0536 12.927 24.4812 12.1917 24.1384 11.767C23.2808 10.7202 22.8812 10.4087 21.9094 9.44605C21.4806 9.02134 20.9375 8.56856 20.9375 8.05963C20.9092 7.74812 21.1661 7.46558 21.3946 7.15407C22.3949 5.68253 23.3951 4.63569 24.3093 3.1071C24.5663 2.65432 25.1669 1.60749 24.9384 1.09766C24.6815 0.531679 23.2524 0.701019 22.3665 0.701019C21.2237 0.701019 19.738 0.615896 19.4518 0.842287C18.9087 1.20995 18.6802 1.8049 18.4232 2.37088C17.8518 3.67308 17.0802 5.00245 16.2802 5.99313C15.994 6.33272 15.4519 7.03997 15.1373 6.92677L15.1383 6.92768Z"/>
</svg>
