<svg xmlns="http://www.w3.org/2000/svg">
  <style>:root svg:not(:target){display:none}</style>
  <svg viewBox="0 0 68 31" id="logo" style="fill: var(--logo-color, #454545)" xmlns="http://www.w3.org/2000/svg">
    <path d="M28.7094 12.0857L37.0213 23.8055V12.4666H35.5105V12.0857H39.2865V12.4648H37.7757V30.2275H37.0213L26.5523 15.2189C26.4942 15.136 26.4112 15.0737 26.3153 15.0412C26.2195 15.0086 26.1157 15.0074 26.0192 15.0379C25.9226 15.0683 25.8382 15.1287 25.7783 15.2103C25.7185 15.2919 25.6861 15.3905 25.6861 15.4918V29.8484H27.1968V30.2147H23.4209V29.8484H24.9316V12.4666H23.4209V12.0857H28.7094ZM39.671 24.5544C39.704 24.7595 39.7644 25.0452 39.8541 25.3766C39.9497 25.7429 40.0721 26.1015 40.2204 26.4497C40.3935 26.8563 40.5979 27.2487 40.832 27.6235C41.0879 28.032 41.3957 28.4056 41.7476 28.7351C42.0842 29.0833 42.4668 29.384 42.8848 29.6287C43.2148 29.8177 43.5657 29.9677 43.9304 30.0755C45.1152 30.4106 46.8054 30.3648 47.9279 29.8191C48.4532 29.5786 48.9194 29.2261 49.294 28.7863C49.6094 28.4091 49.8477 27.9736 49.9954 27.5045C50.1198 27.1208 50.1883 26.7211 50.1986 26.3179C50.2218 25.7644 50.065 25.2183 49.7518 24.7613C49.4373 24.3366 49.0319 23.9875 48.5652 23.7395C48.0298 23.4501 47.465 23.2187 46.8805 23.0492L44.9394 22.476C44.2802 22.2816 43.6322 22.0512 42.9983 21.7856C42.3877 21.5333 41.8195 21.1887 41.3136 20.7638C40.813 20.3393 40.4085 19.8131 40.127 19.2201C39.8065 18.4976 39.6537 17.7119 39.6802 16.922C39.6798 16.2397 39.8371 15.5666 40.1398 14.9552C40.452 14.3185 40.8877 13.7501 41.4217 13.2833C41.998 12.7786 42.6596 12.3805 43.3755 12.1077C44.6363 11.6393 46.0039 11.5377 47.32 11.8147C47.7448 11.9173 48.1202 12.0235 48.4425 12.1334C48.7648 12.2432 49.0523 12.3513 49.2995 12.4538C49.5128 12.5476 49.7423 12.5992 49.9752 12.6058C50.1415 12.6261 50.3095 12.5851 50.4477 12.4904C50.5537 12.3663 50.6357 12.2234 50.6894 12.0693H51.0904V16.6216C51.0008 16.6262 50.9109 16.6262 50.8212 16.6216C50.6583 16.6052 50.6381 16.5356 50.6161 16.3781C50.4696 15.3508 49.9752 14.4718 49.3123 13.6899C48.9163 13.1867 48.4254 12.7661 47.8675 12.452C47.3456 12.1736 46.7541 12.1315 46.1755 12.1041C44.9229 12.0455 43.6667 12.1956 42.6834 13.038C42.3456 13.3206 42.0679 13.668 41.8666 14.0598C41.6861 14.4126 41.5902 14.8025 41.5865 15.1988C41.5657 15.7318 41.7322 16.2553 42.0571 16.6784C42.3998 17.0931 42.8211 17.436 43.2968 17.6874C43.8534 17.9903 44.4393 18.2357 45.0456 18.4199C45.7012 18.625 46.3726 18.838 47.0599 19.059C47.7472 19.2799 48.4187 19.5241 49.0743 19.7915C49.7031 20.041 50.2923 20.3809 50.8231 20.8004C51.3311 21.206 51.7521 21.7099 52.061 22.2819C52.3954 22.9459 52.5578 23.6832 52.5334 24.4262C52.5372 25.2472 52.3636 26.0592 52.0243 26.8068C51.6835 27.5545 51.1923 28.224 50.5813 28.7735C49.929 29.3532 49.1754 29.8076 48.3583 30.114C46.9383 30.6396 45.3998 30.7588 43.9158 30.4582C43.3981 30.3557 42.9135 30.2495 42.4618 30.1396C42.0095 30.0279 41.6103 29.9217 41.2605 29.8191C41.0086 29.7358 40.747 29.6847 40.4822 29.6671C40.3044 29.6526 40.1263 29.6922 39.9713 29.7807C39.8363 29.9094 39.7393 30.0729 39.6912 30.2531H39.281V24.5764L39.671 24.5544Z"/>
    <path d="M66.8647 12.086V16.2428H66.4874C66.4014 15.9535 66.4874 14.3548 65.7311 13.5985C64.5976 12.4669 62.7151 12.4449 61.8856 12.4449L57.4266 12.4669V20.7769H58.7085C59.5069 20.7769 60.3437 20.7439 61.0323 20.2733C61.7208 19.8027 62.402 19.2789 62.7115 18.5098C62.889 18.0199 63.016 17.513 63.0905 16.9973H63.4659V24.5528H63.0887C63.0704 24.5528 62.8818 23.8698 62.858 23.802C62.764 23.535 62.6527 23.2744 62.5247 23.0219C62.109 22.2144 61.4736 21.4855 60.5616 21.2676C60.1033 21.1746 59.6356 21.1353 59.1681 21.1504H57.423V29.8487H61.9222C62.7042 29.8487 64.9767 29.8487 66.1102 28.7151C67.8205 27.0048 67.6209 25.3146 67.6209 24.5601H68V30.2149H52.5098V29.8487H54.0297L54.0206 12.4669H52.5098V12.086H66.8647ZM25.3109 29.8487V30.2149H18.8889V29.8487H20.2916C20.0602 29.114 19.7655 28.4008 19.4108 27.7171C18.334 25.646 16.2629 23.0439 12.6591 23.0439C8.93079 23.0439 6.84139 25.8292 5.79577 27.9296C5.48796 28.5483 5.22838 29.1899 5.01934 29.8487H6.42204V30.2149H0V29.8487H1.67922L4.21177 23.0439H1.95023L2.08941 22.6667H17.5228L14.7028 15.1093L12.6353 9.57721L11.879 7.56288L10.9396 5.01934L12.8184 0H12.8477L14.5343 4.51575L15.6678 7.55372L18.486 15.1074L21.3061 22.6648L21.4453 23.0421L23.9778 29.8487H25.3109ZM64.2204 6.64728L63.4256 5.85437L60.7814 9.55706L61.0451 9.82076L64.2204 6.64728Z"/>
  </svg>
</svg>
