<svg width="12" height="12" viewBox="0 0 12 12" fill="none" xmlns="http://www.w3.org/2000/svg">
<path d="M1 5.5625C0.585786 5.5625 0.25 5.89829 0.25 6.3125C0.25 6.72671 0.585786 7.0625 1 7.0625L1 5.5625ZM11.5303 6.84283C11.8232 6.54994 11.8232 6.07506 11.5303 5.78217L6.75736 1.0092C6.46447 0.716305 5.98959 0.716305 5.6967 1.0092C5.40381 1.30209 5.40381 1.77697 5.6967 2.06986L9.93934 6.3125L5.6967 10.5551C5.40381 10.848 5.40381 11.3229 5.6967 11.6158C5.98959 11.9087 6.46447 11.9087 6.75736 11.6158L11.5303 6.84283ZM1 7.0625L11 7.0625L11 5.5625L1 5.5625L1 7.0625Z" fill="white"/>
</svg>
