<svg width="19" height="18" viewBox="0 0 19 18" fill="none" xmlns="http://www.w3.org/2000/svg">
<path d="M17.7499 13.4333C17.7649 13.9958 17.6149 14.5283 17.3449 14.9858C17.1949 15.2558 16.9924 15.5033 16.7674 15.7058C16.2499 16.1858 15.5674 16.4783 14.8099 16.5008C13.7149 16.5233 12.7474 15.9608 12.2149 15.0983C11.9299 14.6558 11.7574 14.1233 11.7499 13.5608C11.7274 12.6158 12.1474 11.7608 12.8224 11.1983C13.3324 10.7783 13.9774 10.5158 14.6824 10.5008C16.3399 10.4633 17.7124 11.7758 17.7499 13.4333Z" stroke="#FAAFD4" stroke-miterlimit="10" stroke-linecap="round" stroke-linejoin="round"/>
<path d="M13.5798 13.5236L14.3373 14.2435L15.9048 12.7285" stroke="#FAAFD4" stroke-linecap="round" stroke-linejoin="round"/>
<path d="M2.87744 5.58008L9.49993 9.41257L16.0774 5.60255" stroke="#FAAFD4" stroke-linecap="round" stroke-linejoin="round"/>
<path d="M9.5 16.2068V9.4043" stroke="#FAAFD4" stroke-linecap="round" stroke-linejoin="round"/>
<path d="M16.7075 6.8775V11.1225C16.7075 11.16 16.7075 11.19 16.7 11.2275C16.175 10.77 15.5 10.5 14.75 10.5C14.045 10.5 13.3925 10.7475 12.875 11.16C12.185 11.7075 11.75 12.555 11.75 13.5C11.75 14.0625 11.9075 14.595 12.185 15.045C12.2525 15.165 12.335 15.2775 12.425 15.3825L11.0525 16.14C10.1975 16.62 8.80246 16.62 7.94746 16.14L3.94247 13.92C3.03497 13.4175 2.29248 12.1575 2.29248 11.1225V6.8775C2.29248 5.8425 3.03497 4.58252 3.94247 4.08002L7.94746 1.86C8.80246 1.38 10.1975 1.38 11.0525 1.86L15.0575 4.08002C15.965 4.58252 16.7075 5.8425 16.7075 6.8775Z" stroke="#FAAFD4" stroke-linecap="round" stroke-linejoin="round"/>
</svg>
