<svg width="24" height="25" viewBox="0 0 24 25" fill="none" xmlns="http://www.w3.org/2000/svg">
<path fill-rule="evenodd" clip-rule="evenodd" d="M18.2637 8.07084V6.21403C18.2637 2.78212 15.4593 -2.83029e-07 12 0C8.54065 2.83031e-07 5.73631 2.78212 5.73631 6.21401V8.07084H0V19.0475C0 22.335 2.68629 25 6 25H18C21.3137 25 24 22.335 24 19.0475V8.07084H18.2637ZM16.4637 10.3409C16.4637 10.8341 16.8666 11.2338 17.3637 11.2338C17.8608 11.2338 18.2637 10.8341 18.2637 10.3409V9.85657H22.2V19.0475C22.2 21.3487 20.3196 23.2143 18 23.2143H6C3.6804 23.2143 1.8 21.3487 1.8 19.0475V9.85657H5.73631V10.3409C5.73631 10.8341 6.13926 11.2338 6.63632 11.2338C7.13337 11.2338 7.53631 10.8341 7.53631 10.3409V9.85657H16.4637V10.3409ZM7.53631 8.07084H16.4637V6.21403C16.4637 3.76834 14.4652 1.78574 12 1.78574C9.53477 1.78574 7.53631 3.76834 7.53631 6.21401V8.07084Z" fill="#454545"/>
</svg>
