<svg width="19" height="18" viewBox="0 0 19 18" fill="none" xmlns="http://www.w3.org/2000/svg">
<path fill-rule="evenodd" clip-rule="evenodd" d="M5.75 2.0625C4.53877 2.0625 3.44349 2.36522 2.64849 3.10342C1.84597 3.84864 1.4375 4.95529 1.4375 6.375V11.625C1.4375 13.0447 1.84597 14.1514 2.64849 14.8966C3.44349 15.6348 4.53877 15.9375 5.75 15.9375H13.25C14.4613 15.9375 15.5566 15.6348 16.3515 14.8966C17.154 14.1514 17.5625 13.0447 17.5625 11.625V6.375C17.5625 4.95529 17.154 3.84864 16.3515 3.10342C15.5566 2.36522 14.4613 2.0625 13.25 2.0625H5.75ZM14.9214 6.27172C15.1672 6.08178 15.2125 5.72851 15.0225 5.48269C14.8326 5.23687 14.4793 5.19157 14.2335 5.38153L10.0732 8.5962C9.73557 8.85712 9.26435 8.85712 8.9267 8.5962L4.76645 5.38153C4.52062 5.19157 4.16737 5.23687 3.97741 5.48269C3.78746 5.72851 3.83275 6.08178 4.07858 6.27172L8.23887 9.48645C8.98167 10.0603 10.0183 10.0603 10.7611 9.48645L14.9214 6.27172Z"/>
</svg>
