<svg width="36" height="36" viewBox="0 0 36 36" fill="none" xmlns="http://www.w3.org/2000/svg">
<path d="M18 12.6667H18.0178M16.2222 18H18V25.1111H19.7778M2 18C2 20.1012 2.41385 22.1817 3.21793 24.1229C4.022 26.0641 5.20055 27.828 6.68629 29.3137C8.17203 30.7994 9.93586 31.978 11.8771 32.7821C13.8183 33.5861 15.8989 34 18 34C20.1012 34 22.1817 33.5861 24.1229 32.7821C26.0641 31.978 27.828 30.7994 29.3137 29.3137C30.7994 27.828 31.978 26.0641 32.7821 24.1229C33.5861 22.1817 34 20.1012 34 18C34 13.7565 32.3143 9.68687 29.3137 6.68629C26.3131 3.68571 22.2435 2 18 2C13.7565 2 9.68687 3.68571 6.68629 6.68629C3.68571 9.68687 2 13.7565 2 18Z" stroke="#FAAFD4" stroke-width="2.5" stroke-linecap="round" stroke-linejoin="round"/>
</svg>
