<svg width="65" height="10" viewBox="0 0 65 10" fill="none" xmlns="http://www.w3.org/2000/svg">
<path d="M52.3755 4.32237L49.8646 1.53644H48.3967V7.9873H49.9286V3.87076L52.2219 6.3092H52.5047L54.7584 3.87076V7.9873H56.2915V1.53644H54.8236L52.3755 4.32237ZM63.595 1.53644L59.7954 5.72926V1.53644H58.2635V7.9873H59.6673L63.4669 3.79448V7.9873H65V1.53644H63.595ZM40.1387 3.89739C40.1387 4.92411 40.7021 5.73289 41.5659 6.0719L39.9455 7.9873H41.822L43.2957 6.24382H44.8905V7.9873H46.4236V1.53644H42.5216C41.0665 1.53644 40.1387 2.52925 40.1387 3.89739ZM44.8917 2.95664V4.86478H42.8056C42.1095 4.86478 41.7347 4.47734 41.7347 3.9095C41.7347 3.34166 42.1223 2.95543 42.8056 2.95543L44.8917 2.95664ZM33.0157 2.82588C32.9226 5.04518 32.4523 6.47629 31.5338 6.47629H31.3045V8.02604L31.5489 8.03815C33.3905 8.14106 34.4091 6.52835 34.5756 3.00628H36.998V7.9873H38.5276V1.53644H33.0681L33.0157 2.82588ZM27.2453 1.44563C25.1709 1.44563 23.6798 2.87795 23.6798 4.76066C23.6798 6.70996 25.3025 8.09021 27.2453 8.09021C29.2673 8.09021 30.8389 6.63126 30.8389 4.76066C30.8389 2.89005 29.2673 1.44684 27.2453 1.44684V1.44563ZM27.2453 6.54288C26.0731 6.54288 25.2745 5.78011 25.2745 4.76066C25.2745 3.71578 26.0731 2.97602 27.2453 2.97602C28.4152 2.97602 29.2417 3.75089 29.2417 4.76066C29.2417 5.77284 28.4036 6.54167 27.2453 6.54167V6.54288ZM22.0535 1.54855H16.6429L16.5917 2.83799C16.5148 4.69649 16.0294 6.46418 15.1098 6.4896L14.6849 6.50292V9.51042L16.232 9.50679V7.9873H21.603V9.50679H23.1617V6.4896H22.0535V1.54855ZM20.5204 6.4896H17.2494C17.8035 5.65177 18.0991 4.4386 18.1515 3.0196H20.5216L20.5204 6.4896ZM11.103 0H9.67119V7.89286H11.103V0ZM1.43298 1.61514H0V9.50679H1.43182L1.43298 1.61514ZM4.65633 1.07514H3.22451V8.968H4.65633V1.07514ZM7.88083 0.538782H6.44552V8.42922H7.88083V0.538782Z" fill="#454545"/>
</svg>
