<svg width="120" height="488" viewBox="0 0 120 488" fill="none" xmlns="http://www.w3.org/2000/svg">
<path d="M50.3594 1C75.6728 37.5393 108.057 179.722 44.7355 238.614C34.8738 247.786 19.5897 254.12 8.98312 245.821C3.63122 241.633 -0.0685464 234.346 1.27822 222.225C4.12356 196.617 62.6904 202.071 81.6594 207.999C91.8552 212.741 113.527 227.916 118.649 250.679C122.84 269.306 105.087 292.698 90.5716 307.209C84.8776 312.901 77.9497 317.082 71.0313 321.2C47.5518 335.177 14.3484 362.39 13.3713 393.657C12.2331 430.077 31.866 459.1 41.8247 469.059" stroke="#FAAFD4" stroke-linecap="round" stroke-linejoin="round" stroke-dasharray="10 6"/>
<path d="M53.5482 480.533C53.6808 480.936 53.2842 481.31 52.8901 481.155L35.0751 474.136C34.5956 473.947 34.6808 473.244 35.1915 473.175L44.6731 471.896L46.5837 462.379C46.6848 461.876 47.3882 461.833 47.5488 462.321L53.5482 480.533Z" fill="#FAAFD4"/>
</svg>
