<svg width="85" height="344" viewBox="0 0 85 344" fill="none" xmlns="http://www.w3.org/2000/svg">
<path d="M35.6949 1C52.894 25.8266 74.7372 120.037 35.9754 163.685C27.0327 173.755 8.84816 180.464 2.80637 168.428C1.33631 165.499 0.627686 161.611 1.19556 156.5C3.19556 138.5 44.3624 142.333 57.6958 146.5C64.8625 149.833 80.0958 160.5 83.6958 176.5C86.4039 188.536 76.078 203.401 66.4675 213.647C60.9592 219.519 53.9517 223.645 47.1533 227.959C30.9736 238.225 10.341 256.355 9.6958 277C8.8958 302.6 22.6958 323 29.6958 330" stroke="#FAAFD4" stroke-linecap="round" stroke-linejoin="round" stroke-dasharray="10 6"/>
<path d="M37.8374 337.765C37.97 338.167 37.5734 338.542 37.1792 338.387L25.4825 333.778C25.003 333.589 25.0882 332.886 25.5989 332.817L31.6981 331.995L32.9304 325.857C33.0314 325.353 33.7348 325.311 33.8955 325.799L37.8374 337.765Z" fill="#FAAFD4"/>
</svg>
