<svg width="20" height="20" viewBox="0 0 20 20" fill="none" xmlns="http://www.w3.org/2000/svg">
<path d="M7.49984 1.66666H12.4998C16.6665 1.66666 18.3332 3.33332 18.3332 7.49999V12.5C18.3332 16.6667 16.6665 18.3333 12.4998 18.3333H7.49984C3.33317 18.3333 1.6665 16.6667 1.6665 12.5V7.49999C1.6665 3.33332 3.33317 1.66666 7.49984 1.66666Z" stroke="#FAAFD4" stroke-width="2" stroke-linecap="round" stroke-linejoin="round"/>
<path d="M7.1416 12.725L12.5916 7.27502" stroke="#FAAFD4" stroke-width="2" stroke-linecap="round" stroke-linejoin="round"/>
<path d="M7.48351 8.64167C8.0496 8.64167 8.50849 8.18278 8.50849 7.61668C8.50849 7.05059 8.0496 6.59167 7.48351 6.59167C6.91741 6.59167 6.4585 7.05059 6.4585 7.61668C6.4585 8.18278 6.91741 8.64167 7.48351 8.64167Z" stroke="#FAAFD4" stroke-width="1.3" stroke-linecap="round" stroke-linejoin="round"/>
<path d="M12.9332 13.4083C13.4993 13.4083 13.9582 12.9494 13.9582 12.3833C13.9582 11.8172 13.4993 11.3583 12.9332 11.3583C12.3671 11.3583 11.9082 11.8172 11.9082 12.3833C11.9082 12.9494 12.3671 13.4083 12.9332 13.4083Z" stroke="#FAAFD4" stroke-width="1.3" stroke-linecap="round" stroke-linejoin="round"/>
</svg>
