<svg width="22" height="22" viewBox="0 0 22 22" xmlns="http://www.w3.org/2000/svg">
<path d="M1.83865 4.16506C1.74616 2.85487 2.85562 1.83521 4.16637 1.83521H6.97214C7.64497 1.83521 8.25181 2.24061 8.5106 2.86297L9.68386 5.68471C9.96967 6.37208 9.76681 7.16603 9.18656 7.63122L8.45519 8.21753C8.1288 8.47919 8.01784 8.93037 8.21136 9.30127C9.20591 11.2073 10.6758 12.8249 12.4633 13.9963C12.8406 14.2436 13.339 14.1452 13.6205 13.7927L14.3826 12.838C14.8468 12.2565 15.6391 12.0533 16.325 12.3397L19.1409 13.5154C19.7621 13.7747 20.1666 14.3828 20.1666 15.057V17.8769C20.1666 19.1904 19.1114 20.2561 17.804 20.1631C9.44351 19.5683 2.43135 12.5618 1.83865 4.16506Z"/>
</svg>
