<svg width="24" height="24" viewBox="0 0 24 24" fill="none" xmlns="http://www.w3.org/2000/svg">
<path fill-rule="evenodd" clip-rule="evenodd" d="M16.8152 18.0551C15.0357 19.5541 12.7377 20.4575 10.2287 20.4575C4.57957 20.4575 0 15.8779 0 10.2287C0 4.57957 4.57957 0 10.2287 0C15.8779 0 20.4575 4.57957 20.4575 10.2287C20.4575 12.7377 19.5541 15.0357 18.0551 16.8152L24 22.76L22.76 24L16.8152 18.0551ZM18.704 10.2287C18.704 14.9096 14.9096 18.704 10.2287 18.704C5.548 18.704 1.7535 14.9096 1.7535 10.2287C1.7535 5.548 5.548 1.7535 10.2287 1.7535C14.9096 1.7535 18.704 5.548 18.704 10.2287Z" fill="#454545"/>
</svg>
