<svg width="22" height="22" viewBox="0 0 22 22" fill="none" xmlns="http://www.w3.org/2000/svg">
<path d="M2.75928 10.2852V14.401C2.75928 18.5168 4.40928 20.1668 8.52511 20.1668H13.4659C17.5818 20.1668 19.2318 18.5168 19.2318 14.401V10.2852" stroke="#454545" stroke-linecap="round" stroke-linejoin="round"/>
<path d="M11.0001 11.0002C12.6776 11.0002 13.9151 9.63433 13.7501 7.95683L13.1451 1.8335H8.86428L8.25011 7.95683C8.08511 9.63433 9.32261 11.0002 11.0001 11.0002Z" stroke="#454545" stroke-linecap="round" stroke-linejoin="round"/>
<path d="M16.7842 11.0002C18.6359 11.0002 19.9926 9.49683 19.8092 7.65433L19.5526 5.1335C19.2226 2.75016 18.3059 1.8335 15.9042 1.8335H13.1084L13.7501 8.25933C13.9059 9.77183 15.2717 11.0002 16.7842 11.0002Z" stroke="#454545" stroke-linecap="round" stroke-linejoin="round"/>
<path d="M5.17001 11.0002C6.68251 11.0002 8.04835 9.77183 8.19501 8.25933L8.39668 6.2335L8.83668 1.8335H6.04085C3.63918 1.8335 2.72251 2.75016 2.39251 5.1335L2.14501 7.65433C1.96168 9.49683 3.31835 11.0002 5.17001 11.0002Z" stroke="#454545" stroke-linecap="round" stroke-linejoin="round"/>
<path d="M11.0002 15.5835C9.46933 15.5835 8.7085 16.3443 8.7085 17.8752V20.1668H13.2918V17.8752C13.2918 16.3443 12.531 15.5835 11.0002 15.5835Z" stroke="#454545" stroke-linecap="round" stroke-linejoin="round"/>
</svg>
