<svg width="25" height="25" viewBox="0 0 25 25" fill="none" xmlns="http://www.w3.org/2000/svg">
<path d="M12.4997 14.5835H13.5413C14.6872 14.5835 15.6247 13.646 15.6247 12.5002V2.0835H6.24966C4.68716 2.0835 3.32259 2.94807 2.61426 4.2189" stroke="#FAAFD4" stroke-width="2" stroke-linecap="round" stroke-linejoin="round"/>
<path d="M2.08301 17.7085C2.08301 19.4377 3.47884 20.8335 5.20801 20.8335H6.24967C6.24967 19.6877 7.18717 18.7502 8.33301 18.7502C9.47884 18.7502 10.4163 19.6877 10.4163 20.8335H14.583C14.583 19.6877 15.5205 18.7502 16.6663 18.7502C17.8122 18.7502 18.7497 19.6877 18.7497 20.8335H19.7913C21.5205 20.8335 22.9163 19.4377 22.9163 17.7085V14.5835H19.7913C19.2184 14.5835 18.7497 14.1147 18.7497 13.5418V10.4168C18.7497 9.84391 19.2184 9.37516 19.7913 9.37516H21.1351L19.3539 6.26059C18.9789 5.61476 18.2914 5.2085 17.5414 5.2085H15.6247V12.5002C15.6247 13.646 14.6872 14.5835 13.5413 14.5835H12.4997" stroke="#FAAFD4" stroke-width="2" stroke-linecap="round" stroke-linejoin="round"/>
<path d="M8.33333 22.9167C9.48393 22.9167 10.4167 21.9839 10.4167 20.8333C10.4167 19.6827 9.48393 18.75 8.33333 18.75C7.18274 18.75 6.25 19.6827 6.25 20.8333C6.25 21.9839 7.18274 22.9167 8.33333 22.9167Z" stroke="#FAAFD4" stroke-width="2" stroke-linecap="round" stroke-linejoin="round"/>
<path d="M16.6663 22.9167C17.8169 22.9167 18.7497 21.9839 18.7497 20.8333C18.7497 19.6827 17.8169 18.75 16.6663 18.75C15.5157 18.75 14.583 19.6827 14.583 20.8333C14.583 21.9839 15.5157 22.9167 16.6663 22.9167Z" stroke="#FAAFD4" stroke-width="2" stroke-linecap="round" stroke-linejoin="round"/>
<path d="M22.9167 12.5V14.5833H19.7917C19.2187 14.5833 18.75 14.1146 18.75 13.5417V10.4167C18.75 9.84375 19.2187 9.375 19.7917 9.375H21.1354L22.9167 12.5Z" stroke="#FAAFD4" stroke-width="2" stroke-linecap="round" stroke-linejoin="round"/>
<path d="M2.08301 8.3335H8.33301" stroke="#FAAFD4" stroke-width="2" stroke-linecap="round" stroke-linejoin="round"/>
<path d="M2.08301 11.4585H6.24967" stroke="#FAAFD4" stroke-width="2" stroke-linecap="round" stroke-linejoin="round"/>
<path d="M2.08301 14.5835H4.16634" stroke="#FAAFD4" stroke-width="2" stroke-linecap="round" stroke-linejoin="round"/>
</svg>
