<svg width="22" height="22" viewBox="0 0 22 22" fill="none" xmlns="http://www.w3.org/2000/svg">
<path d="M10.9999 12.8335H11.9166C12.9249 12.8335 13.7499 12.0085 13.7499 11.0002V1.8335H5.49994C4.12494 1.8335 2.92411 2.59432 2.30078 3.71265" stroke="#898C92" stroke-linecap="round" stroke-linejoin="round"/>
<path d="M1.8335 15.5835C1.8335 17.1052 3.06183 18.3335 4.5835 18.3335H5.50016C5.50016 17.3252 6.32516 16.5002 7.3335 16.5002C8.34183 16.5002 9.16683 17.3252 9.16683 18.3335H12.8335C12.8335 17.3252 13.6585 16.5002 14.6668 16.5002C15.6752 16.5002 16.5002 17.3252 16.5002 18.3335H17.4168C18.9385 18.3335 20.1668 17.1052 20.1668 15.5835V12.8335H17.4168C16.9127 12.8335 16.5002 12.421 16.5002 11.9168V9.16683C16.5002 8.66266 16.9127 8.25016 17.4168 8.25016H18.5993L17.0318 5.50934C16.7018 4.94101 16.0969 4.5835 15.4369 4.5835H13.7502V11.0002C13.7502 12.0085 12.9252 12.8335 11.9168 12.8335H11.0002" stroke="#898C92" stroke-linecap="round" stroke-linejoin="round"/>
<path d="M7.33333 20.1667C8.34586 20.1667 9.16667 19.3459 9.16667 18.3333C9.16667 17.3208 8.34586 16.5 7.33333 16.5C6.32081 16.5 5.5 17.3208 5.5 18.3333C5.5 19.3459 6.32081 20.1667 7.33333 20.1667Z" stroke="#898C92" stroke-linecap="round" stroke-linejoin="round"/>
<path d="M14.6668 20.1667C15.6794 20.1667 16.5002 19.3459 16.5002 18.3333C16.5002 17.3208 15.6794 16.5 14.6668 16.5C13.6543 16.5 12.8335 17.3208 12.8335 18.3333C12.8335 19.3459 13.6543 20.1667 14.6668 20.1667Z" stroke="#898C92" stroke-linecap="round" stroke-linejoin="round"/>
<path d="M20.1667 11V12.8333H17.4167C16.9125 12.8333 16.5 12.4208 16.5 11.9167V9.16667C16.5 8.6625 16.9125 8.25 17.4167 8.25H18.5991L20.1667 11Z" stroke="#898C92" stroke-linecap="round" stroke-linejoin="round"/>
<path d="M1.8335 7.3335H7.3335" stroke="#898C92" stroke-linecap="round" stroke-linejoin="round"/>
<path d="M1.8335 10.0835H5.50016" stroke="#898C92" stroke-linecap="round" stroke-linejoin="round"/>
<path d="M1.8335 12.8335H3.66683" stroke="#898C92" stroke-linecap="round" stroke-linejoin="round"/>
</svg>
