<svg width="24" height="24" viewBox="0 0 24 24" fill="none" xmlns="http://www.w3.org/2000/svg">
<path fill-rule="evenodd" clip-rule="evenodd" d="M16.2621 5.99993C16.2621 8.3195 14.3335 10.1999 11.9544 10.1999C9.57535 10.1999 7.64674 8.3195 7.64674 5.99993C7.64674 3.68038 9.57535 1.8 11.9544 1.8C14.3335 1.8 16.2621 3.68038 16.2621 5.99993ZM18.1083 5.99993C18.1083 9.3136 15.3531 11.9999 11.9544 11.9999C8.55574 11.9999 5.80058 9.3136 5.80058 5.99993C5.80058 2.68626 8.55574 0 11.9544 0C15.3531 0 18.1083 2.68626 18.1083 5.99993ZM10.7692 13.5001C4.82154 13.5001 0 18.2011 0 24H1.84616C1.84616 19.1952 5.84115 15.3001 10.7692 15.3001H13.2308C18.1589 15.3001 22.1538 19.1952 22.1538 24H24C24 18.2011 19.1784 13.5001 13.2308 13.5001H10.7692Z" fill="#454545"/>
</svg>
