<svg xmlns="http://www.w3.org/2000/svg"><style>:root svg:not(:target){display:none}</style><svg viewBox="0 0 24 25" fill="none" id="cart"><path fill-rule="evenodd" clip-rule="evenodd" d="M18.264 8.07V6.215C18.264 2.782 15.459 0 12 0 8.54 0 5.736 2.782 5.736 6.214v1.857H0v10.976C0 22.335 2.686 25 6 25h12c3.314 0 6-2.665 6-5.953V8.071h-5.736Zm-1.8 2.27c0 .494.403.894.9.894s.9-.4.9-.893v-.484H22.2v9.19c0 2.302-1.88 4.167-4.2 4.167H6c-2.32 0-4.2-1.865-4.2-4.166V9.856h3.936v.484c0 .493.403.893.9.893s.9-.4.9-.893v-.484h8.928v.484ZM7.536 8.07h8.928V6.215c0-2.446-1.999-4.428-4.464-4.428-2.465 0-4.464 1.982-4.464 4.428v1.857Z" fill="#454545"/></svg><svg viewBox="0 0 10 4" fill="none" id="filter"><rect width="10" height="1" rx=".5" fill="#454545"/><rect y="3" width="5" height="1" rx=".5" fill="#454545"/></svg><svg viewBox="0 0 20 20" fill="none" id="heart"><path d="M10.517 17.341c-.283.1-.75.1-1.033 0-2.417-.825-7.817-4.266-7.817-10.1 0-2.575 2.075-4.658 4.633-4.658 1.517 0 2.859.733 3.7 1.867a4.608 4.608 0 0 1 3.7-1.867c2.559 0 4.634 2.083 4.634 4.658 0 5.834-5.4 9.275-7.817 10.1Z" fill="#FAAFD4"/></svg><svg viewBox="0 0 36 36" fill="none" id="info-fancy"><path d="M18 12.667h.018M16.222 18H18v7.111h1.778M2 18a16 16 0 1 0 31.999 0A16 16 0 0 0 2 18Z" stroke="#FAAFD4" stroke-width="2.5" stroke-linecap="round" stroke-linejoin="round"/></svg><svg viewBox="0 0 24 24" fill="none" id="location"><path d="M12 13.43a3.12 3.12 0 1 0 0-6.24 3.12 3.12 0 0 0 0 6.24Z" stroke="#FAAFD4" stroke-width="1.5"/><path d="M3.62 8.49c1.97-8.66 14.8-8.65 16.76.01 1.15 5.08-2.01 9.38-4.78 12.04a5.193 5.193 0 0 1-7.21 0c-2.76-2.66-5.92-6.97-4.77-12.05Z" stroke="#FAAFD4" stroke-width="1.5"/></svg><svg viewBox="0 0 65 10" fill="none" id="parts-with-text"><path d="m52.376 4.322-2.511-2.786h-1.468v6.451h1.532V3.871l2.293 2.438h.283l2.253-2.438v4.116h1.533v-6.45h-1.467l-2.448 2.785Zm11.219-2.786-3.8 4.193V1.536h-1.532v6.451h1.404l3.8-4.193v4.193H65v-6.45h-1.405ZM40.139 3.897c0 1.027.563 1.836 1.427 2.175l-1.62 1.915h1.876l1.474-1.743h1.595v1.743h1.533v-6.45h-3.902c-1.456 0-2.383.992-2.383 2.36Zm4.753-.94v1.908h-2.086c-.697 0-1.071-.388-1.071-.956 0-.567.387-.954 1.07-.954l2.087.002Zm-11.876-.131c-.093 2.22-.564 3.65-1.482 3.65h-.23v1.55l.245.012c1.842.103 2.86-1.51 3.027-5.032h2.422v4.981h1.53v-6.45h-5.46l-.052 1.289Zm-5.77-1.38c-2.075 0-3.566 1.432-3.566 3.315 0 1.949 1.622 3.33 3.565 3.33 2.022 0 3.594-1.46 3.594-3.33 0-1.871-1.572-3.314-3.594-3.314v-.001Zm0 5.097c-1.173 0-1.971-.763-1.971-1.782 0-1.045.798-1.785 1.97-1.785 1.17 0 1.997.775 1.997 1.785 0 1.012-.838 1.78-1.997 1.78v.002Zm-5.192-4.994h-5.411l-.051 1.289c-.077 1.858-.563 3.626-1.482 3.652l-.425.013V9.51l1.547-.003v-1.52h5.371v1.52h1.559V6.49h-1.108V1.549Zm-1.534 4.94h-3.27c.553-.837.85-2.05.901-3.47h2.37v3.47ZM11.103 0H9.671v7.893h1.432V0Zm-9.67 1.615H0v7.892h1.432l.001-7.892Zm3.223-.54H3.225v7.893h1.431V1.075ZM7.881.54H6.446v7.89H7.88V.54Z" fill="#454545"/></svg><svg viewBox="0 0 11 10" fill="none" id="parts"><g clip-path="url(#parts_0)"><path d="M11 .25H9.581v7.887H11V.25ZM1.42 1.864H0V9.75h1.419V1.864Zm3.193-.54H3.195v7.888h1.418V1.324ZM7.808.788H6.386v7.885h1.422V.788Z" fill="#fff"/></g><defs><clipPath id="parts_0"><path fill="#fff" d="M0 0h11v10H0z"/></clipPath></defs></svg><svg viewBox="0 0 120 488" fill="none" id="path-big"><path d="M50.36 1c25.313 36.54 57.697 178.722-5.624 237.614-9.862 9.172-25.146 15.506-35.753 7.207-5.352-4.188-9.052-11.475-7.705-23.596 2.846-25.608 61.412-20.154 80.381-14.226 10.196 4.742 31.868 19.917 36.99 42.68 4.191 18.627-13.562 42.019-28.077 56.53-5.694 5.692-12.622 9.873-19.54 13.991-23.48 13.977-56.684 41.19-57.66 72.457-1.139 36.42 18.494 65.443 28.453 75.402" stroke="#FAAFD4" stroke-linecap="round" stroke-linejoin="round" stroke-dasharray="10 6"/><path d="M53.548 480.533a.5.5 0 0 1-.658.622l-17.815-7.019c-.48-.189-.394-.892.116-.961l9.482-1.279 1.91-9.517c.102-.503.805-.546.966-.058l6 18.212Z" fill="#FAAFD4"/></svg><svg viewBox="0 0 85 344" fill="none" id="path-small"><path d="M35.695 1c17.199 24.827 39.042 119.037.28 162.685-8.942 10.07-27.127 16.779-33.169 4.743-1.47-2.929-2.178-6.817-1.61-11.928 2-18 43.166-14.167 56.5-10 7.166 3.333 22.4 14 26 30 2.708 12.036-7.618 26.901-17.228 37.147-5.509 5.872-12.516 9.998-19.315 14.312C30.973 238.225 10.341 256.355 9.696 277c-.8 25.6 13 46 20 53" stroke="#FAAFD4" stroke-linecap="round" stroke-linejoin="round" stroke-dasharray="10 6"/><path d="M37.837 337.765a.5.5 0 0 1-.658.622l-11.697-4.609c-.479-.189-.394-.892.117-.961l6.1-.822 1.231-6.138c.101-.504.805-.546.965-.058l3.942 11.966Z" fill="#FAAFD4"/></svg><svg viewBox="0 0 20 20" fill="none" id="percent"><path d="M7.5 1.667h5c4.166 0 5.833 1.666 5.833 5.833v5c0 4.167-1.666 5.833-5.833 5.833h-5c-4.167 0-5.833-1.666-5.833-5.833v-5c0-4.167 1.666-5.833 5.833-5.833ZM7.142 12.725l5.45-5.45" stroke="#FAAFD4" stroke-width="2" stroke-linecap="round" stroke-linejoin="round"/><path d="M7.484 8.642a1.025 1.025 0 1 0 0-2.05 1.025 1.025 0 0 0 0 2.05ZM12.933 13.408a1.025 1.025 0 1 0 0-2.05 1.025 1.025 0 0 0 0 2.05Z" stroke="#FAAFD4" stroke-width="1.3" stroke-linecap="round" stroke-linejoin="round"/></svg><svg viewBox="0 0 22 22" id="phone"><path d="M1.839 4.165c-.093-1.31 1.017-2.33 2.327-2.33h2.806c.673 0 1.28.406 1.539 1.028l1.173 2.822a1.672 1.672 0 0 1-.497 1.946l-.732.587A.874.874 0 0 0 8.211 9.3a12.576 12.576 0 0 0 4.252 4.695.872.872 0 0 0 1.158-.203l.762-.955a1.664 1.664 0 0 1 1.942-.498l2.816 1.175a1.67 1.67 0 0 1 1.026 1.542v2.82c0 1.313-1.056 2.38-2.363 2.286-8.36-.595-15.373-7.601-15.965-15.998Z"/></svg><svg viewBox="0 0 24 24" fill="none" id="search"><path fill-rule="evenodd" clip-rule="evenodd" d="M16.815 18.055a10.189 10.189 0 0 1-6.586 2.402C4.579 20.457 0 15.877 0 10.23 0 4.579 4.58 0 10.229 0c5.649 0 10.229 4.58 10.229 10.229 0 2.509-.904 4.807-2.403 6.586L24 22.76 22.76 24l-5.945-5.945Zm1.889-7.826a8.475 8.475 0 1 1-16.95 0 8.475 8.475 0 0 1 16.95 0Z" fill="#454545"/></svg><svg viewBox="0 0 20 20" fill="none" id="trash"><path d="M17.5 4.984a84.752 84.752 0 0 0-8.35-.417c-1.65 0-3.3.083-4.95.25l-1.7.167M7.083 4.141l.184-1.091c.133-.792.233-1.383 1.641-1.383h2.184c1.408 0 1.516.625 1.641 1.391l.184 1.083M15.708 7.617l-.541 8.391c-.092 1.309-.167 2.325-2.492 2.325h-5.35c-2.325 0-2.4-1.016-2.492-2.325l-.541-8.391M8.608 13.75h2.775M7.917 10.416h4.166" stroke="#898C92" stroke-width="1.5" stroke-linecap="round" stroke-linejoin="round"/></svg><svg viewBox="0 0 25 25" fill="none" id="truck"><path d="M12.5 14.584h1.041a2.09 2.09 0 0 0 2.084-2.084V2.084H6.25a4.163 4.163 0 0 0-3.636 2.135" stroke="#FAAFD4" stroke-width="2" stroke-linecap="round" stroke-linejoin="round"/><path d="M2.083 17.709a3.12 3.12 0 0 0 3.125 3.125H6.25a2.09 2.09 0 0 1 2.083-2.084 2.09 2.09 0 0 1 2.083 2.084h4.167a2.09 2.09 0 0 1 2.083-2.084 2.09 2.09 0 0 1 2.084 2.084h1.041a3.12 3.12 0 0 0 3.125-3.125v-3.125h-3.125a1.045 1.045 0 0 1-1.041-1.042v-3.125c0-.573.468-1.042 1.041-1.042h1.344l-1.781-3.114a2.1 2.1 0 0 0-1.813-1.053h-1.916V12.5a2.09 2.09 0 0 1-2.084 2.084H12.5" stroke="#FAAFD4" stroke-width="2" stroke-linecap="round" stroke-linejoin="round"/><path d="M8.333 22.917a2.083 2.083 0 1 0 0-4.167 2.083 2.083 0 0 0 0 4.167ZM16.666 22.917a2.083 2.083 0 1 0 0-4.167 2.083 2.083 0 0 0 0 4.167ZM22.917 12.5v2.083h-3.125a1.045 1.045 0 0 1-1.042-1.041v-3.125c0-.573.469-1.042 1.042-1.042h1.343l1.782 3.125ZM2.083 8.334h6.25M2.083 11.459H6.25M2.083 14.584h2.083" stroke="#FAAFD4" stroke-width="2" stroke-linecap="round" stroke-linejoin="round"/></svg><svg viewBox="0 0 24 24" fill="none" id="user"><path fill-rule="evenodd" clip-rule="evenodd" d="M16.262 6c0 2.32-1.928 4.2-4.308 4.2-2.379 0-4.307-1.88-4.307-4.2 0-2.32 1.928-4.2 4.307-4.2 2.38 0 4.308 1.88 4.308 4.2Zm1.846 0c0 3.314-2.755 6-6.154 6-3.398 0-6.153-2.686-6.153-6s2.755-6 6.153-6c3.4 0 6.154 2.686 6.154 6Zm-7.339 7.5C4.822 13.5 0 18.201 0 24h1.846c0-4.805 3.995-8.7 8.923-8.7h2.462c4.928 0 8.923 3.895 8.923 8.7H24c0-5.799-4.822-10.5-10.77-10.5h-2.46Z" fill="#454545"/></svg><svg viewBox="0 0 18 10" fill="none" id="controls_arrow-without-tail"><path d="m17 2-6.586 5.977c-.778.705-2.05.705-2.828 0L1 2" stroke="#454545" stroke-width="1.5" stroke-miterlimit="10" stroke-linecap="round" stroke-linejoin="round"/></svg><svg viewBox="0 0 21 16" fill="none" id="controls_arrow"><path d="M1 7a1 1 0 0 0 0 2V7Zm19.707 1.707a1 1 0 0 0 0-1.414L14.343.929a1 1 0 1 0-1.414 1.414L18.586 8l-5.657 5.657a1 1 0 0 0 1.414 1.414l6.364-6.364ZM1 9h19V7H1v2Z" fill="#fff"/></svg><svg viewBox="0 0 20 13" fill="none" id="controls_burger"><rect y=".25" width="20" height="1.5" rx=".75" fill="#454545"/><rect y="5.75" width="20" height="1.5" rx=".75" fill="#454545"/><rect y="11.25" width="20" height="1.5" rx=".75" fill="#454545"/></svg><svg viewBox="0 0 12 10" fill="none" id="controls_checkmark"><path fill-rule="evenodd" clip-rule="evenodd" d="M11.476 1.25c.32.328.32.857 0 1.186L4.772 9.3a.822.822 0 0 1-1.18 0L.242 5.868a.851.851 0 0 1 0-1.186.822.822 0 0 1 1.179 0L4.182 7.51l6.115-6.262a.822.822 0 0 1 1.18 0Z" fill="#fff"/></svg><svg viewBox="0 0 24 24" fill="none" id="controls_cross"><path d="M6.707 18.707a1 1 0 0 1-1.414-1.414L10.586 12 5.293 6.707a1 1 0 0 1 1.414-1.414L12 10.586l5.293-5.293a1 1 0 1 1 1.414 1.414L13.414 12l5.293 5.293a1 1 0 0 1-1.414 1.414L12 13.414l-5.293 5.293Z" fill="#fff"/></svg><svg viewBox="0 0 15 3" fill="none" id="controls_minus"><path d="M13.728 1.364H1" stroke="#454545" stroke-width="2" stroke-linecap="round"/></svg><svg viewBox="0 0 14 15" fill="none" id="controls_play"><path d="M13.5 6.634a1 1 0 0 1 0 1.732L2.25 14.861a1 1 0 0 1-1.5-.866V1.005a1 1 0 0 1 1.5-.866L13.5 6.634Z" fill="#FAAFD4"/></svg><svg viewBox="0 0 15 15" fill="none" id="controls_plus"><path d="M7.364 1v6.364m0 6.364V7.364m0 0h6.364m-6.364 0H1" stroke="#454545" stroke-width="2" stroke-linecap="round"/></svg><svg viewBox="0 0 12 12" fill="none" id="controls_short-arrow"><path d="M1 5.563a.75.75 0 0 0 0 1.5v-1.5Zm10.53 1.28a.75.75 0 0 0 0-1.06L6.757 1.008a.75.75 0 1 0-1.06 1.06l4.242 4.243-4.242 4.243a.75.75 0 0 0 1.06 1.06l4.773-4.772ZM1 7.063h10v-1.5H1v1.5Z" fill="#fff"/></svg><svg viewBox="0 0 12 6" fill="none" id="controls_small-arrow-without-tail"><path d="m1 1 4.375 3.5a1 1 0 0 0 1.25 0L11 1" stroke="#454545" stroke-linecap="round"/></svg><svg viewBox="0 0 28 28" fill="none" id="controls_small-minus"><path d="M9.5 15v-2h9v2h-9Z" fill="#454545"/></svg><svg viewBox="0 0 28 28" fill="none" id="controls_small-plus"><path d="M12.918 18.5v-3.463H9.5v-2.074h3.418V9.5h2.142v3.463h3.44v2.074h-3.44V18.5h-2.142Z" fill="#454545"/></svg><svg viewBox="0 0 30 19" fill="none" id="payment_mastercard"><path d="m18.749 2.135-7.897.027.239 14.71 7.897-.027-.24-14.71Z" fill="#FF5F00"/><path d="M11.372 9.545c-.049-2.992 1.268-5.65 3.332-7.375C13.146.927 11.194.18 9.077.187 4.063.204.075 4.407.16 9.584c.084 5.178 4.21 9.352 9.223 9.335a8.734 8.734 0 0 0 5.561-2.023c-2.119-1.684-3.523-4.359-3.572-7.35Z" fill="#EB001B"/><path d="M29.681 9.417c.085 5.177-3.903 9.38-8.918 9.397-2.116.008-4.069-.74-5.626-1.983 2.088-1.725 3.38-4.383 3.332-7.375a9.64 9.64 0 0 0-3.573-7.351A8.734 8.734 0 0 1 20.457.082c5.015-.017 9.14 4.183 9.224 9.335Z" fill="#F79E1B"/></svg><svg viewBox="0 0 36 17" fill="none" id="payment_mir"><path d="M32.176 5H25.33c.399 2.252 2.592 4.372 4.985 4.372h5.45c.067-.199.067-.53.067-.729C35.832 6.656 34.17 5 32.176 5Z" fill="url(#payment_mir_0)"/><path d="M25.93 9.77v5.498h3.323v-2.915h2.925c1.595 0 2.99-1.126 3.456-2.583H25.93ZM14.23 5v10.201h2.925s.731 0 1.13-.729c1.994-3.908 2.592-5.1 2.592-5.1h.399v5.83h3.323V5h-2.924s-.732.066-1.13.729c-1.662 3.378-2.592 5.1-2.592 5.1h-.4V5H14.23ZM.273 15.267V5.066h3.324s.93 0 1.462 1.457c1.33 3.842 1.462 4.372 1.462 4.372s.266-.927 1.462-4.372c.532-1.457 1.463-1.457 1.463-1.457h3.323v10.201H9.446V9.77h-.4l-1.86 5.498H5.724L3.863 9.77h-.4v5.498H.274Z" fill="#4FAD50"/><linearGradient id="payment_mir_0" x1="25.318" y1="7.217" x2="35.808" y2="7.217" gradientUnits="userSpaceOnUse"><stop stop-color="#27B1E6"/><stop offset="1" stop-color="#148ACA"/></linearGradient></svg><svg viewBox="0 0 31 17" fill="none" id="payment_sbp"><path d="M29.259 5.938v3.99h-1.407V7.13h-1.355v2.798H25.09v-3.99h4.169ZM24.422 8.16c0 1.16-.968 1.927-2.271 1.927-1.348 0-2.33-.811-2.33-2.65 0-1.578 1.007-2.879 2.499-2.904.654 0 2.058-.03 2.058-.03l-.633 1.16-1.267.002c-.643 0-1.229.484-1.31 1.147.341-.32.796-.507 1.347-.507 1.192 0 1.907.73 1.907 1.854Zm-1.445 0c0-.522-.335-.827-.82-.827-.498 0-.833.312-.833.833 0 .492.335.849.834.849.521 0 .82-.387.82-.856ZM18.705 8.721s-.34.192-.847.229c-.585.016-1.104-.344-1.104-.984 0-.624.459-.982 1.088-.982.387 0 .898.262.898.262s.374-.672.567-1.006c-.354-.263-.827-.407-1.377-.407-1.386 0-2.461.885-2.461 2.126 0 1.258 1.01 2.121 2.461 2.095.407-.015.966-.154 1.307-.368l-.532-.965Z" fill="#1C1637"/><path d="M.766 3.483 2.71 6.947V9.06L.77 12.516.766 3.483Z" fill="#5B57A2"/><path d="m8.23 5.686 1.822-1.112 3.727-.003L8.23 7.96V5.686Z" fill="#D90751"/><path d="m8.22 3.463.01 4.585L6.28 6.854V0L8.22 3.463Z" fill="#FAB718"/><path d="m13.778 4.57-3.727.003-1.831-1.11L6.28 0l7.497 4.57Z" fill="#ED6F26"/><path d="M8.23 12.534V10.31L6.28 9.14V16l1.949-3.466Z" fill="#63B22F"/><path d="M10.047 11.432 2.711 6.947.766 3.483l13.006 7.945-3.725.004Z" fill="#1487C9"/><path d="m6.281 15.999 1.949-3.466 1.816-1.102 3.725-.004-7.49 4.572Z" fill="#017F36"/><path d="M.77 12.516 6.297 9.14 4.438 8.004 2.711 9.059.77 12.516Z" fill="#984995"/></svg><svg viewBox="0 0 40 19" fill="none" id="payment_visa"><path d="M36.029 5.156h-2.32c-.7 0-1.24.21-1.564.89l-4.422 9.796h3.128s.54-1.31.647-1.624h3.83c.107.366.377 1.571.377 1.571h2.805L36.029 5.156Zm-3.668 6.862c.27-.629 1.187-2.986 1.187-2.986 0 .053.27-.628.377-.995l.216.943s.593 2.566.701 3.09h-2.481v-.052ZM27.937 12.333c0 2.2-2.05 3.666-5.232 3.666-1.348 0-2.642-.261-3.344-.576l.432-2.41.377.158c.971.42 1.618.576 2.805.576.863 0 1.78-.314 1.78-1.047 0-.472-.378-.786-1.564-1.31-1.133-.524-2.643-1.362-2.643-2.88 0-2.096 2.103-3.51 5.07-3.51 1.132 0 2.103.21 2.697.471l-.432 2.305-.216-.21a5.945 5.945 0 0 0-2.265-.418c-1.133.052-1.672.523-1.672.942 0 .472.647.838 1.672 1.31 1.726.785 2.535 1.676 2.535 2.933Z" fill="#3362AB"/><path d="m1.617 5.26.054-.21H6.31c.647 0 1.132.21 1.294.891l1.025 4.714C7.604 8.141 5.23 6.098 1.617 5.26Z" fill="#F9B50B"/><path d="m15.155 5.158-4.692 10.633H7.28L4.584 6.887c1.942 1.205 3.56 3.09 4.153 4.4l.324 1.1 2.912-7.281h3.182v.052ZM16.395 5.106h2.967l-1.888 10.685h-2.966l1.887-10.685Z" fill="#3362AB"/></svg><svg viewBox="0 0 22 19" id="socials_telegram"><path d="M20.515.122 1.027 7.69c-1.33.538-1.322 1.285-.244 1.618l5.004 1.571 11.576-7.354c.547-.335 1.047-.155.636.213L8.62 12.259h-.002l.002.002-.345 5.192c.506 0 .729-.233 1.012-.509l2.43-2.38 5.056 3.76c.931.517 1.6.252 1.833-.869L21.924 1.71c.34-1.371-.52-1.992-1.409-1.587Z"/></svg><svg viewBox="0 0 25 15" id="socials_vk"><path d="M15.138 6.928c-.457-.17-.457-.82-.485-1.274-.114-1.612.457-4.075-.229-5.121-.485-.623-2.829-.566-4.257-.481-.4.057-.886.141-1.228.311-.343.17-.686.453-.686.707 0 .368.857.312 1.171.793.343.51.343 1.613.343 2.518 0 1.047-.172 2.434-.6 2.49-.657.029-1.028-.623-1.371-1.103A18.84 18.84 0 0 1 5.91 2.54c-.257-.594-.4-1.245-.772-1.5-.572-.396-1.6-.424-2.6-.396C1.623.673.308.56.052 1.098c-.2.594.228 1.16.457 1.641C1.68 5.258 2.937 7.466 4.481 9.56c1.429 1.953 2.77 3.51 5.4 4.33.743.226 4 .877 4.657 0 .228-.34.171-1.104.286-1.67.114-.566.257-1.132.8-1.16.457-.028.714.368 1 .651.315.311.571.566.8.85.543.537 1.114 1.273 1.8 1.556.943.397 2.4.284 3.771.226 1.115-.028 1.915-.254 2.001-.905.058-.51-.515-1.245-.858-1.67-.857-1.047-1.257-1.358-2.229-2.321-.428-.425-.971-.877-.971-1.386-.029-.312.228-.594.457-.906 1-1.471 2-2.518 2.914-4.047.257-.453.858-1.5.63-2.01-.258-.565-1.687-.396-2.573-.396-1.142 0-2.628-.085-2.914.141-.543.368-.772.963-1.029 1.529-.571 1.302-1.343 2.631-2.143 3.622-.286.34-.828 1.047-1.143.934h.001Z"/></svg><svg viewBox="0 0 22 22" id="socials_whatsapp"><path fill-rule="evenodd" clip-rule="evenodd" d="M17.403 15.533c-.265.75-1.319 1.371-2.16 1.553-.575.122-1.325.219-3.853-.829-2.839-1.176-6.781-5.366-6.781-8.154 0-1.42.818-3.072 2.25-3.072.688 0 .84.013 1.067.557.265.64.911 2.218.988 2.38.318.663-.323 1.051-.788 1.63-.149.173-.317.36-.129.684.187.317.834 1.371 1.784 2.218 1.228 1.093 2.223 1.443 2.58 1.591.265.11.582.085.775-.122.246-.266.55-.705.86-1.14.22-.31.498-.348.79-.238.196.068 2.699 1.23 2.804 1.416.078.136.078.776-.187 1.526ZM11.003 0h-.006C4.932 0 0 4.934 0 11c0 2.405.776 4.637 2.094 6.447l-1.37 4.087 4.227-1.35A10.915 10.915 0 0 0 11.002 22C17.067 22 22 17.066 22 11S17.067 0 11.002 0Z"/></svg></svg>