<svg xmlns="http://www.w3.org/2000/svg"><style>:root svg:not(:target){display:none}</style><svg viewBox="0 0 120 488" fill="none" id="path-big"><path d="M50.36 1c25.313 36.54 57.697 178.722-5.624 237.614-9.862 9.172-25.146 15.506-35.753 7.207-5.352-4.188-9.052-11.475-7.705-23.596 2.846-25.608 61.412-20.154 80.381-14.226 10.196 4.742 31.868 19.917 36.99 42.68 4.191 18.627-13.562 42.019-28.077 56.53-5.694 5.692-12.622 9.873-19.54 13.991-23.48 13.977-56.684 41.19-57.66 72.457-1.139 36.42 18.494 65.443 28.453 75.402" stroke="#FAAFD4" stroke-linecap="round" stroke-linejoin="round" stroke-dasharray="10 6"/><path d="M53.548 480.533a.5.5 0 0 1-.658.622l-17.815-7.019c-.48-.189-.394-.892.116-.961l9.482-1.279 1.91-9.517c.102-.503.805-.546.966-.058l6 18.212Z" fill="#FAAFD4"/></svg><svg viewBox="0 0 85 344" fill="none" id="path-small"><path d="M35.695 1c17.199 24.827 39.042 119.037.28 162.685-8.942 10.07-27.127 16.779-33.169 4.743-1.47-2.929-2.178-6.817-1.61-11.928 2-18 43.166-14.167 56.5-10 7.166 3.333 22.4 14 26 30 2.708 12.036-7.618 26.901-17.228 37.147-5.509 5.872-12.516 9.998-19.315 14.312C30.973 238.225 10.341 256.355 9.696 277c-.8 25.6 13 46 20 53" stroke="#FAAFD4" stroke-linecap="round" stroke-linejoin="round" stroke-dasharray="10 6"/><path d="M37.837 337.765a.5.5 0 0 1-.658.622l-11.697-4.609c-.479-.189-.394-.892.117-.961l6.1-.822 1.231-6.138c.101-.504.805-.546.965-.058l3.942 11.966Z" fill="#FAAFD4"/></svg><svg viewBox="0 0 24 24" fill="none" id="user"><path fill-rule="evenodd" clip-rule="evenodd" d="M16.262 6c0 2.32-1.928 4.2-4.308 4.2-2.379 0-4.307-1.88-4.307-4.2 0-2.32 1.928-4.2 4.307-4.2 2.38 0 4.308 1.88 4.308 4.2Zm1.846 0c0 3.314-2.755 6-6.154 6-3.398 0-6.153-2.686-6.153-6s2.755-6 6.153-6c3.4 0 6.154 2.686 6.154 6Zm-7.339 7.5C4.822 13.5 0 18.201 0 24h1.846c0-4.805 3.995-8.7 8.923-8.7h2.462c4.928 0 8.923 3.895 8.923 8.7H24c0-5.799-4.822-10.5-10.77-10.5h-2.46Z" fill="#454545"/></svg><svg viewBox="0 0 14 15" fill="none" id="controls_play"><path d="M13.5 6.634a1 1 0 0 1 0 1.732L2.25 14.861a1 1 0 0 1-1.5-.866V1.005a1 1 0 0 1 1.5-.866L13.5 6.634Z" fill="#FAAFD4"/></svg><svg viewBox="0 0 28 28" fill="none" id="controls_small-minus"><path d="M9.5 15v-2h9v2h-9Z" fill="#454545"/></svg><svg viewBox="0 0 28 28" fill="none" id="controls_small-plus"><path d="M12.918 18.5v-3.463H9.5v-2.074h3.418V9.5h2.142v3.463h3.44v2.074h-3.44V18.5h-2.142Z" fill="#454545"/></svg><svg viewBox="0 0 30 19" fill="none" id="payment_mastercard"><path d="m18.749 2.135-7.897.027.239 14.71 7.897-.027-.24-14.71Z" fill="#FF5F00"/><path d="M11.372 9.545c-.049-2.992 1.268-5.65 3.332-7.375C13.146.927 11.194.18 9.077.187 4.063.204.075 4.407.16 9.584c.084 5.178 4.21 9.352 9.223 9.335a8.734 8.734 0 0 0 5.561-2.023c-2.119-1.684-3.523-4.359-3.572-7.35Z" fill="#EB001B"/><path d="M29.681 9.417c.085 5.177-3.903 9.38-8.918 9.397-2.116.008-4.069-.74-5.626-1.983 2.088-1.725 3.38-4.383 3.332-7.375a9.64 9.64 0 0 0-3.573-7.351A8.734 8.734 0 0 1 20.457.082c5.015-.017 9.14 4.183 9.224 9.335Z" fill="#F79E1B"/></svg><svg viewBox="0 0 36 17" fill="none" id="payment_mir"><path d="M32.176 5H25.33c.399 2.252 2.592 4.372 4.985 4.372h5.45c.067-.199.067-.53.067-.729C35.832 6.656 34.17 5 32.176 5Z" fill="url(#payment_mir_0)"/><path d="M25.93 9.77v5.498h3.323v-2.915h2.925c1.595 0 2.99-1.126 3.456-2.583H25.93ZM14.23 5v10.201h2.925s.731 0 1.13-.729c1.994-3.908 2.592-5.1 2.592-5.1h.399v5.83h3.323V5h-2.924s-.732.066-1.13.729c-1.662 3.378-2.592 5.1-2.592 5.1h-.4V5H14.23ZM.273 15.267V5.066h3.324s.93 0 1.462 1.457c1.33 3.842 1.462 4.372 1.462 4.372s.266-.927 1.462-4.372c.532-1.457 1.463-1.457 1.463-1.457h3.323v10.201H9.446V9.77h-.4l-1.86 5.498H5.724L3.863 9.77h-.4v5.498H.274Z" fill="#4FAD50"/><linearGradient id="payment_mir_0" x1="25.318" y1="7.217" x2="35.808" y2="7.217" gradientUnits="userSpaceOnUse"><stop stop-color="#27B1E6"/><stop offset="1" stop-color="#148ACA"/></linearGradient></svg><svg viewBox="0 0 31 17" fill="none" id="payment_sbp"><path d="M29.259 5.938v3.99h-1.407V7.13h-1.355v2.798H25.09v-3.99h4.169ZM24.422 8.16c0 1.16-.968 1.927-2.271 1.927-1.348 0-2.33-.811-2.33-2.65 0-1.578 1.007-2.879 2.499-2.904.654 0 2.058-.03 2.058-.03l-.633 1.16-1.267.002c-.643 0-1.229.484-1.31 1.147.341-.32.796-.507 1.347-.507 1.192 0 1.907.73 1.907 1.854Zm-1.445 0c0-.522-.335-.827-.82-.827-.498 0-.833.312-.833.833 0 .492.335.849.834.849.521 0 .82-.387.82-.856ZM18.705 8.721s-.34.192-.847.229c-.585.016-1.104-.344-1.104-.984 0-.624.459-.982 1.088-.982.387 0 .898.262.898.262s.374-.672.567-1.006c-.354-.263-.827-.407-1.377-.407-1.386 0-2.461.885-2.461 2.126 0 1.258 1.01 2.121 2.461 2.095.407-.015.966-.154 1.307-.368l-.532-.965Z" fill="#1C1637"/><path d="M.766 3.483 2.71 6.947V9.06L.77 12.516.766 3.483Z" fill="#5B57A2"/><path d="m8.23 5.686 1.822-1.112 3.727-.003L8.23 7.96V5.686Z" fill="#D90751"/><path d="m8.22 3.463.01 4.585L6.28 6.854V0L8.22 3.463Z" fill="#FAB718"/><path d="m13.778 4.57-3.727.003-1.831-1.11L6.28 0l7.497 4.57Z" fill="#ED6F26"/><path d="M8.23 12.534V10.31L6.28 9.14V16l1.949-3.466Z" fill="#63B22F"/><path d="M10.047 11.432 2.711 6.947.766 3.483l13.006 7.945-3.725.004Z" fill="#1487C9"/><path d="m6.281 15.999 1.949-3.466 1.816-1.102 3.725-.004-7.49 4.572Z" fill="#017F36"/><path d="M.77 12.516 6.297 9.14 4.438 8.004 2.711 9.059.77 12.516Z" fill="#984995"/></svg><svg viewBox="0 0 40 19" fill="none" id="payment_visa"><path d="M36.029 5.156h-2.32c-.7 0-1.24.21-1.564.89l-4.422 9.796h3.128s.54-1.31.647-1.624h3.83c.107.366.377 1.571.377 1.571h2.805L36.029 5.156Zm-3.668 6.862c.27-.629 1.187-2.986 1.187-2.986 0 .053.27-.628.377-.995l.216.943s.593 2.566.701 3.09h-2.481v-.052ZM27.937 12.333c0 2.2-2.05 3.666-5.232 3.666-1.348 0-2.642-.261-3.344-.576l.432-2.41.377.158c.971.42 1.618.576 2.805.576.863 0 1.78-.314 1.78-1.047 0-.472-.378-.786-1.564-1.31-1.133-.524-2.643-1.362-2.643-2.88 0-2.096 2.103-3.51 5.07-3.51 1.132 0 2.103.21 2.697.471l-.432 2.305-.216-.21a5.945 5.945 0 0 0-2.265-.418c-1.133.052-1.672.523-1.672.942 0 .472.647.838 1.672 1.31 1.726.785 2.535 1.676 2.535 2.933Z" fill="#3362AB"/><path d="m1.617 5.26.054-.21H6.31c.647 0 1.132.21 1.294.891l1.025 4.714C7.604 8.141 5.23 6.098 1.617 5.26Z" fill="#F9B50B"/><path d="m15.155 5.158-4.692 10.633H7.28L4.584 6.887c1.942 1.205 3.56 3.09 4.153 4.4l.324 1.1 2.912-7.281h3.182v.052ZM16.395 5.106h2.967l-1.888 10.685h-2.966l1.887-10.685Z" fill="#3362AB"/></svg></svg>