<svg xmlns="http://www.w3.org/2000/svg"><style>:root svg:not(:target){display:none}</style><svg viewBox="0 0 120 488" fill="none" id="path-big"><path d="M50.36 1c25.313 36.54 57.697 178.722-5.624 237.614-9.862 9.172-25.146 15.506-35.753 7.207-5.352-4.188-9.052-11.475-7.705-23.596 2.846-25.608 61.412-20.154 80.381-14.226 10.196 4.742 31.868 19.917 36.99 42.68 4.191 18.627-13.562 42.019-28.077 56.53-5.694 5.692-12.622 9.873-19.54 13.991-23.48 13.977-56.684 41.19-57.66 72.457-1.139 36.42 18.494 65.443 28.453 75.402" stroke="#FAAFD4" stroke-linecap="round" stroke-linejoin="round" stroke-dasharray="10 6"/><path d="M53.548 480.533a.5.5 0 0 1-.658.622l-17.815-7.019c-.48-.189-.394-.892.116-.961l9.482-1.279 1.91-9.517c.102-.503.805-.546.966-.058l6 18.212Z" fill="#FAAFD4"/></svg><svg viewBox="0 0 85 344" fill="none" id="path-small"><path d="M35.695 1c17.199 24.827 39.042 119.037.28 162.685-8.942 10.07-27.127 16.779-33.169 4.743-1.47-2.929-2.178-6.817-1.61-11.928 2-18 43.166-14.167 56.5-10 7.166 3.333 22.4 14 26 30 2.708 12.036-7.618 26.901-17.228 37.147-5.509 5.872-12.516 9.998-19.315 14.312C30.973 238.225 10.341 256.355 9.696 277c-.8 25.6 13 46 20 53" stroke="#FAAFD4" stroke-linecap="round" stroke-linejoin="round" stroke-dasharray="10 6"/><path d="M37.837 337.765a.5.5 0 0 1-.658.622l-11.697-4.609c-.479-.189-.394-.892.117-.961l6.1-.822 1.231-6.138c.101-.504.805-.546.965-.058l3.942 11.966Z" fill="#FAAFD4"/></svg><svg viewBox="0 0 28 28" fill="none" id="controls_small-minus"><path d="M9.5 15v-2h9v2h-9Z" fill="#454545"/></svg><svg viewBox="0 0 28 28" fill="none" id="controls_small-plus"><path d="M12.918 18.5v-3.463H9.5v-2.074h3.418V9.5h2.142v3.463h3.44v2.074h-3.44V18.5h-2.142Z" fill="#454545"/></svg></svg>