<svg xmlns="http://www.w3.org/2000/svg"><style>:root svg:not(:target){display:none}</style><svg viewBox="0 0 68 31" id="logo" style="fill:var(--logo-color, #454545)" xmlns="http://www.w3.org/2000/svg"><path d="m28.71 12.086 8.311 11.72v-11.34h-1.51v-.38h3.775v.379h-1.51v17.762h-.755L26.552 15.22a.476.476 0 0 0-.866.273v14.356h1.51v.367h-3.775v-.367h1.51V12.467h-1.51v-.381h5.288ZM39.67 24.554c.033.206.093.491.183.823.096.366.218.725.366 1.073.174.406.378.799.612 1.174.256.408.564.782.916 1.111.336.348.719.649 1.137.894.33.189.68.339 1.045.447 1.185.335 2.875.289 3.998-.257a3.96 3.96 0 0 0 1.366-1.033c.315-.377.554-.812.701-1.282.125-.383.193-.783.204-1.186a2.564 2.564 0 0 0-.447-1.557 3.549 3.549 0 0 0-1.187-1.021c-.535-.29-1.1-.521-1.684-.69l-1.942-.574a18.739 18.739 0 0 1-1.94-.69 6.448 6.448 0 0 1-1.685-1.022c-.501-.425-.906-.95-1.187-1.544a5.235 5.235 0 0 1-.447-2.298c0-.682.157-1.355.46-1.967a5.348 5.348 0 0 1 1.282-1.672 6.454 6.454 0 0 1 1.954-1.175 7.117 7.117 0 0 1 3.944-.293 12.917 12.917 0 0 1 1.98.639c.213.094.442.145.675.152.166.02.334-.02.473-.116.106-.124.188-.267.241-.42h.401v4.552c-.09.004-.18.004-.269 0-.163-.017-.183-.086-.205-.244-.146-1.027-.64-1.906-1.304-2.688a4.894 4.894 0 0 0-1.444-1.238c-.522-.278-1.114-.32-1.693-.348-1.252-.058-2.508.092-3.492.934-.337.283-.615.63-.816 1.022-.18.353-.277.742-.28 1.139-.021.533.145 1.056.47 1.48.343.414.764.757 1.24 1.008a9.336 9.336 0 0 0 1.749.733c.655.205 1.327.418 2.014.639.687.22 1.359.465 2.014.732.63.25 1.218.59 1.75 1.01.507.405.928.909 1.237 1.48.334.665.497 1.402.472 2.145a5.696 5.696 0 0 1-.509 2.38 5.982 5.982 0 0 1-1.443 1.967 7.098 7.098 0 0 1-2.223 1.341 8.142 8.142 0 0 1-4.442.344 34.553 34.553 0 0 1-1.454-.318 29.122 29.122 0 0 1-1.202-.32 3.143 3.143 0 0 0-.778-.153.885.885 0 0 0-.51.114 1.014 1.014 0 0 0-.28.472h-.411v-5.677l.39-.022Z"/><path d="M66.865 12.086v4.157h-.378c-.086-.29 0-1.888-.756-2.644-1.133-1.132-3.016-1.154-3.845-1.154l-4.46.022v8.31h1.282c.799 0 1.636-.033 2.324-.504.689-.47 1.37-.994 1.68-1.763.177-.49.304-.997.378-1.513h.376v7.556h-.377c-.019 0-.207-.683-.231-.751a6.497 6.497 0 0 0-.333-.78c-.416-.808-1.051-1.537-1.963-1.754a6.029 6.029 0 0 0-1.394-.118h-1.745v8.699h4.5c.781 0 3.054 0 4.187-1.134 1.71-1.71 1.51-3.4 1.51-4.155H68v5.655H52.51v-.366h1.52l-.01-17.382h-1.51v-.381h14.355ZM25.31 29.849v.366h-6.422v-.366h1.403a13.314 13.314 0 0 0-.881-2.132c-1.077-2.071-3.148-4.673-6.752-4.673-3.728 0-5.818 2.785-6.863 4.886-.308.618-.568 1.26-.777 1.919h1.403v.366H0v-.366h1.68l2.532-6.805H1.95l.14-.377h15.433l-2.82-7.558-2.068-5.532-.756-2.014-.94-2.544L12.82 0h.029l1.686 4.516 1.134 3.038 2.818 7.553 2.82 7.558.14.377 2.532 6.807h1.333ZM64.22 6.647l-.795-.793-2.645 3.703.264.264 3.175-3.174Z"/></svg></svg>